<svg width="24" height="24" viewBox="0 0 24 24" fill="none" xmlns="http://www.w3.org/2000/svg">
  <circle cx="12" cy="12" r="3" fill="none" stroke="#666" stroke-width="2"/>
  <path d="M12 2C12 2 12 5 12 9" stroke="#666" stroke-width="2" stroke-linecap="round" transform="rotate(0 12 12)"/>
  <path d="M12 15C12 15 12 18 12 22" stroke="#666" stroke-width="2" stroke-linecap="round" transform="rotate(0 12 12)"/>
  <path d="M12 2C12 2 12 5 12 9" stroke="#666" stroke-width="2" stroke-linecap="round" transform="rotate(45 12 12)"/>
  <path d="M12 15C12 15 12 18 12 22" stroke="#666" stroke-width="2" stroke-linecap="round" transform="rotate(45 12 12)"/>
  <path d="M12 2C12 2 12 5 12 9" stroke="#666" stroke-width="2" stroke-linecap="round" transform="rotate(90 12 12)"/>
  <path d="M12 15C12 15 12 18 12 22" stroke="#666" stroke-width="2" stroke-linecap="round" transform="rotate(90 12 12)"/>
  <path d="M12 2C12 2 12 5 12 9" stroke="#666" stroke-width="2" stroke-linecap="round" transform="rotate(135 12 12)"/>
  <path d="M12 15C12 15 12 18 12 22" stroke="#666" stroke-width="2" stroke-linecap="round" transform="rotate(135 12 12)"/>
</svg>