<svg width="24" height="24" viewBox="0 0 24 24" fill="none" xmlns="http://www.w3.org/2000/svg">
  <path d="M3 13C3 13 5 11 8 11C11 11 13 13 13 13C13 13 15 11 18 11C21 11 23 13 23 13" stroke="#3B82F6" stroke-width="2" stroke-linecap="round"/>
  <path d="M3 17C3 17 5 15 8 15C11 15 13 17 13 17C13 17 15 15 18 15C21 15 23 17 23 17" stroke="#3B82F6" stroke-width="2" stroke-linecap="round" opacity="0.7"/>
  <path d="M3 21C3 21 5 19 8 19C11 19 13 21 13 21C13 21 15 19 18 19C21 19 23 21 23 21" stroke="#3B82F6" stroke-width="2" stroke-linecap="round" opacity="0.5"/>
  <rect x="8" y="5" width="8" height="6" fill="#8B4513" stroke="#654321" stroke-width="1"/>
  <polygon points="12,2 7,5 17,5" fill="#DC143C"/>
</svg>