<svg width="24" height="24" viewBox="0 0 24 24" fill="none" xmlns="http://www.w3.org/2000/svg">
  <path d="M14 14.76V3.5C14 2.67 13.33 2 12.5 2H11.5C10.67 2 10 2.67 10 3.5V14.76C8.21 15.54 7 17.34 7 19.5C7 22 9 24 11.5 24C14 24 16 22 16 19.5C16 17.34 14.79 15.54 13 14.76Z" fill="#038C50"/>
  <path d="M11.5 17C10.12 17 9 18.12 9 19.5C9 20.88 10.12 22 11.5 22C12.88 22 14 20.88 14 19.5C14 18.12 12.88 17 11.5 17Z" fill="#4FBF7F"/>
  <rect x="11" y="6" width="2" height="8" fill="#FF6B35" opacity="0.8"/>
</svg>